<svg xmlns="http://www.w3.org/2000/svg" width="32" height="32" viewBox="0 0 8.467 8.467"><g transform="translate(358.971 -574.008)"><path fill="#fc987a" d="m -351.47323,577.54696 a 3.2742185,3.2742185 0 0 1 -3.27421,3.27422 3.2742185,3.2742185 0 0 1 -3.27422,-3.27422 3.2742185,3.2742185 0 0 1 3.27422,-3.27422 3.2742185,3.2742185 0 0 1 3.27421,3.27422 z"/><g fill="#3a3640" transform="matrix(1.00025 0 0 1 -27.258 396.517)"><path d="M-324.28996 179.01147c.15283 0 .24927.0898.33774.16211.0885.0723.15619.14454.15619.14454.0481.051.0481.13066 0 .18165 0 0-.0677.0722-.15619.14453-.0885.0723-.18491.16212-.33774.16212-.21753 0-.39633-.17887-.39633-.3965 0-.21763.1788-.39845.39633-.39845zm0 .26563c-.0726-.0171-.13081.0582-.13081.13282 0 .0746.0562.13087.13081.13087.007 0 .0965-.0416.16984-.10158.0182-.0149.0175-.0152.0332-.0293-.016-.0144-.0144-.0159-.0332-.0312-.047-.0449-.1146-.0886-.16984-.10161zM-324.28996 184.70016c.15283 0 .24927.0898.33774.16211.0885.0723.15619.14454.15619.14454.0481.051.0481.13066 0 .18165 0 0-.0677.0722-.15619.14453-.0885.0723-.18491.16212-.33774.16212-.21753 0-.39633-.17887-.39633-.3965 0-.21763.1788-.39845.39633-.39845zm0 .26563c-.0726-.0171-.13081.0582-.13081.13282 0 .0746.0562.13087.13081.13087.007 0 .0965-.0416.16984-.10158.0182-.0149.0175-.0152.0332-.0293-.016-.0144-.0144-.0159-.0332-.0312-.047-.0449-.1146-.0886-.16984-.1016zM-328.73145 181.45882a.13293531.13299669 0 0 0 .0137.26564h.63255l-.73212.83792a.13224876.13230982 0 1 0 .19913.17384l.92539-1.05668a.13224876.13230982 0 0 0-.0996-.22072h-.92538a.13224876.13230982 0 0 0-.0137 0z" color="#000" font-family="sans-serif" font-weight="400" overflow="visible" white-space="normal" style="line-height:normal;font-variant-ligatures:normal;font-variant-position:normal;font-variant-caps:normal;font-variant-numeric:normal;font-variant-alternates:normal;font-feature-settings:normal;text-indent:0;text-align:start;text-decoration-line:none;text-decoration-style:solid;text-decoration-color:#000;text-transform:none;text-orientation:mixed;shape-padding:0;isolation:auto;mix-blend-mode:normal"/><path style="line-height:normal;font-variant-ligatures:normal;font-variant-position:normal;font-variant-caps:normal;font-variant-numeric:normal;font-variant-alternates:normal;font-feature-settings:normal;text-indent:0;text-align:start;text-decoration-line:none;text-decoration-style:solid;text-decoration-color:#000;text-transform:none;text-orientation:mixed;shape-padding:0;isolation:auto;mix-blend-mode:normal" d="M-328.20432 181.98814a.13224876.13230982 0 0 0-.11714.13281v1.32037a.13275365.13281495 0 1 0 .2655 0v-1.00003l.30262.30079a.13252717.13258837 0 1 0 .18742-.18751l-.52908-.52737a.13224876.13230982 0 0 0-.10932-.0391zM-327.13252 181.45882a.13224876.13230982 0 0 0-.1308.13282v.52931a.13224876.13230982 0 0 0 .1308.13087h.92539a.13224876.13230982 0 0 0 .13275-.13087v-.52931a.13224876.13230982 0 0 0-.13275-.13282zm.13276.26564h.65988v.26368h-.65988zM-327.27699 182.38464a.13224876.13230982 0 0 0-.11909.13282v.92386a.13224876.13230982 0 0 0 .13276.13282h1.18894a.13224876.13230982 0 0 0 .13277-.13282v-.92386a.13224876.13230982 0 0 0-.13277-.13282h-1.18894a.13224876.13230982 0 0 0-.0137 0zm.14447.26368h.92539v.66214h-.92539z" color="#000" font-family="sans-serif" font-weight="400" overflow="visible" white-space="normal"/><path style="line-height:normal;font-variant-ligatures:normal;font-variant-position:normal;font-variant-caps:normal;font-variant-numeric:normal;font-variant-alternates:normal;font-feature-settings:normal;text-indent:0;text-align:start;text-decoration-line:none;text-decoration-style:solid;text-decoration-color:#000;text-transform:none;text-orientation:mixed;shape-padding:0;isolation:auto;mix-blend-mode:normal" d="m -326.80063,182.51746 v 0.92386 h 0.26356 v -0.92386 z" color="#000" font-family="sans-serif" font-weight="400" overflow="visible" white-space="normal"/><path style="line-height:normal;font-variant-ligatures:normal;font-variant-position:normal;font-variant-caps:normal;font-variant-numeric:normal;font-variant-alternates:normal;font-feature-settings:normal;text-indent:0;text-align:start;text-decoration-line:none;text-decoration-style:solid;text-decoration-color:#000;text-transform:none;text-orientation:mixed;shape-padding:0;isolation:auto;mix-blend-mode:normal" d="M-327.19694 182.84755v.26368h1.05619v-.26368zM-326.9978 180.92951a.1327537.132815 0 1 0 0 .26563h.65792a.1327537.132815 0 1 0 0-.26563zM-328.33513 180.86505a.13224876.13230982 0 0 0-.0781.22658l.19522.19531a.13252627.13258747 0 1 0 .18742-.1875l-.19522-.19532a.13224876.13230982 0 0 0-.10933-.0391zM-329.57874 179.80642v4.7619h.26356v-4.7619zM-325.47892 179.80642v4.7619h.26356v-4.7619z" color="#000" font-family="sans-serif" font-weight="400" overflow="visible" white-space="normal"/><path style="line-height:normal;font-variant-ligatures:normal;font-variant-position:normal;font-variant-caps:normal;font-variant-numeric:normal;font-variant-alternates:normal;font-feature-settings:normal;text-indent:0;text-align:start;text-decoration-line:none;text-decoration-style:solid;text-decoration-color:#000;text-transform:none;text-orientation:mixed;shape-padding:0;isolation:auto;mix-blend-mode:normal" d="m -329.44599,178.81419 c -0.21748,0 -0.39827,0.17892 -0.39827,0.39651 v 0.39649 c 0,0.21759 0.18079,0.3965 0.39827,0.3965 h 4.09788 c 0.21747,0 0.39826,-0.17891 0.39826,-0.3965 v -0.39649 c 0,-0.21759 -0.18079,-0.39651 -0.39826,-0.39651 z m 0,0.26368 h 4.09788 c 0.0756,0 0.13275,0.0572 0.13275,0.13283 v 0.39649 c 0,0.0756 -0.0572,0.13281 -0.13275,0.13281 h -4.09788 c -0.0756,0 -0.13275,-0.0572 -0.13275,-0.13281 v -0.39649 c 0,-0.0756 0.0572,-0.13282 0.13275,-0.13283 z" color="#000" font-family="sans-serif" font-weight="400" overflow="visible" white-space="normal"/><path style="line-height:normal;font-variant-ligatures:normal;font-variant-position:normal;font-variant-caps:normal;font-variant-numeric:normal;font-variant-alternates:normal;font-feature-settings:normal;text-indent:0;text-align:start;text-decoration-line:none;text-decoration-style:solid;text-decoration-color:#000;text-transform:none;text-orientation:mixed;shape-padding:0;isolation:auto;mix-blend-mode:normal" d="M-329.97506 178.8806c-.21749 0-.39631.17891-.39631.3965v.26369c0 .21759.17882.39649.39631.39649.21749 0 .39632-.1789.39632-.39649v-.26369c0-.21759-.17883-.3965-.39632-.3965zm0 .26368c.0756 0 .1308.0572.1308.13282v.26369c0 .0756-.0553.13281-.1308.13281-.0756 0-.13275-.0572-.13275-.13281v-.26369c0-.0756.0572-.13282.13275-.13282zM-324.81905 178.8806c.21749 0 .39632.17891.39632.3965v.26369c0 .21759-.17883.39649-.39632.39649-.21749 0-.39631-.1789-.39631-.39649v-.26369c0-.21759.17882-.3965.39631-.3965zm0 .26368c-.0756 0-.1308.0572-.1308.13282v.26369c0 .0756.0553.13281.1308.13281.0756 0 .13276-.0572.13276-.13281v-.26369c0-.0756-.0572-.13282-.13276-.13282zM-329.44599 184.5019c-.21748 0-.39827.17892-.39827.39651v.39845c0 .21758.18079.3965.39827.3965h4.09788c.21747 0 .39826-.17892.39826-.3965v-.39845c0-.21759-.18079-.39651-.39826-.39651zm0 .26564h4.09788c.0756 0 .13275.0553.13275.13087v.39845c0 .0756-.0572.13086-.13275.13086h-4.09788c-.0756 0-.13275-.0553-.13275-.13086v-.39845c0-.0756.0572-.13087.13275-.13087z" color="#000" font-family="sans-serif" font-weight="400" overflow="visible" white-space="normal"/><path style="line-height:normal;font-variant-ligatures:normal;font-variant-position:normal;font-variant-caps:normal;font-variant-numeric:normal;font-variant-alternates:normal;font-feature-settings:normal;text-indent:0;text-align:start;text-decoration-line:none;text-decoration-style:solid;text-decoration-color:#000;text-transform:none;text-orientation:mixed;shape-padding:0;isolation:auto;mix-blend-mode:normal" d="M-329.97506 184.56832c-.21749 0-.39631.1789-.39631.39649v.26564c0 .21759.17882.39649.39631.39649.21749 0 .39632-.1789.39632-.39649v-.26564c0-.21759-.17883-.39649-.39632-.39649zm0 .26562c.0756 0 .1308.0553.1308.13087v.26564c0 .0756-.0553.13281-.1308.13281-.0756 0-.13275-.0572-.13275-.13281v-.26564c0-.0756.0572-.13087.13275-.13087zM-324.81905 184.56832c.21749 0 .39632.1789.39632.39649v.26564c0 .21759-.17883.39649-.39632.39649-.21749 0-.39631-.1789-.39631-.39649v-.26564c0-.21759.17882-.39649.39631-.39649zm0 .26562c-.0756 0-.1308.0553-.1308.13087v.26564c0 .0756.0553.13281.1308.13281.0756 0 .13276-.0572.13276-.13281v-.26564c0-.0756-.0572-.13087-.13276-.13087zM-329.18243 179.2771v.26369h3.57075v-.26369zM-329.18243 184.96481v.26564h3.57075v-.26564zM-330.50414 179.01147c-.15283 0-.24927.0898-.33774.16211-.0885.0723-.15619.14454-.15619.14454-.0481.051-.0481.13066 0 .18165 0 0 .0677.0722.15619.14453.0885.0723.18491.16212.33774.16212.21753 0 .39633-.17887.39633-.3965 0-.21763-.1788-.39845-.39633-.39845zm0 .26563c.0726-.0171.13081.0582.13081.13282 0 .0746-.0562.13087-.13081.13087-.007 0-.0965-.0416-.16984-.10158-.0182-.0149-.0175-.0152-.0332-.0293.016-.0144.0144-.0159.0332-.0312.047-.0449.1146-.0886.16984-.10161z" color="#000" font-family="sans-serif" font-weight="400" overflow="visible" white-space="normal"/><path d="m -330.50414,184.70016 c -0.15283,0 -0.24927,0.0898 -0.33774,0.16211 -0.0885,0.0723 -0.15619,0.14454 -0.15619,0.14454 -0.0481,0.051 -0.0481,0.13066 0,0.18165 0,0 0.0677,0.0722 0.15619,0.14453 0.0885,0.0723 0.18491,0.16212 0.33774,0.16212 0.21753,0 0.39633,-0.17887 0.39633,-0.3965 0,-0.21763 -0.1788,-0.39845 -0.39633,-0.39845 z m 0,0.26563 c 0.0726,-0.0171 0.13081,0.0582 0.13081,0.13282 0,0.0746 -0.0562,0.13087 -0.13081,0.13087 -0.007,0 -0.0965,-0.0416 -0.16984,-0.10158 -0.0182,-0.0149 -0.0175,-0.0152 -0.0332,-0.0293 0.016,-0.0144 0.0144,-0.0159 0.0332,-0.0312 0.047,-0.0449 0.1146,-0.0886 0.16984,-0.1016 z" color="#000" font-family="sans-serif" font-weight="400" overflow="visible" white-space="normal" style="line-height:normal;font-variant-ligatures:normal;font-variant-position:normal;font-variant-caps:normal;font-variant-numeric:normal;font-variant-alternates:normal;font-feature-settings:normal;text-indent:0;text-align:start;text-decoration-line:none;text-decoration-style:solid;text-decoration-color:#000;text-transform:none;text-orientation:mixed;shape-padding:0;isolation:auto;mix-blend-mode:normal"/></g></g></svg>